<svg id="Layer_1" data-name="Layer 1" xmlns="http://www.w3.org/2000/svg" viewBox="0 0 775.45 206.89"><defs><style>.cls-1{fill:#fff;}</style></defs><title>asli sefid</title><path class="cls-1" d="M367.18,266.88l15.7-14.29s6.18-3.88,12.36,2.82-.89,13.24-.89,13.24l-21.88,21.53s-7.59,5.64-13.59-1.42-35.47-42.88-35.47-42.88l-.7,81.71a9.25,9.25,0,0,1-9.53,7.41c-8.3,0-10.06-7.94-10.06-7.94V218s.7-7.41,6.88-9.18,9.18,1.59,10.94,3.71S367.18,266.88,367.18,266.88Z" transform="translate(-62.5 -207.29)"/><path class="cls-1" d="M409.71,215.71V326.53s1.41,8.47,9.35,8.47,10.59-4.94,10.59-6.71V215.71s-1.71-8.18-10-8.3S409.71,215.71,409.71,215.71Z" transform="translate(-62.5 -207.29)"/><path class="cls-1" d="M502.35,228.24c16.94-.71,44.65,13,43.41,44.47s-28.41,42.53-40.41,42.17-43.59-6-45.7-43.22-20.3-18.9-19.94-1.42c0,19.41,7.76,64.05,64.41,64.76,56.29-3.18,61.76-52.76,61.76-61.59,3-9.53-7.59-65.08-63.09-65.08-52.79,13.38,7.68,13.2,7.68,13.2Z" transform="translate(-62.5 -207.29)"/><path class="cls-1" d="M638.59,227.78a34.77,34.77,0,0,1,6.78.42c16.63,2.59,37.71,16.56,36.63,44.05-1.24,31.41-28.41,42.53-40.41,42.17-10.77-.31-37.33-4.87-44.18-32.74a57.88,57.88,0,0,1-1.53-10.47c-2.12-37.26-20.29-18.9-19.94-1.43,0,19.41,7.77,64.06,64.41,64.76,56.3-3.18,61.77-52.76,61.77-61.59,3-9.53-7.59-65.08-63.09-65.08-52.79,13.38,7.68,13.2,7.68,13.2Z" transform="translate(-62.5 -207.29)"/><path class="cls-1" d="M511.93,229.2c-16.75-5.67-55.26,6.69-52,45.81s-19.31,7.17-19.31,7.17-8.26-44.06,30.33-66.18,71.2,4.54,74.81,8.24-21.16,4.47-21.16,4.47Z" transform="translate(-62.5 -207.29)"/><path class="cls-1" d="M648,229.2c-16.75-5.67-55.25,6.69-52,45.81s-19.31,7.17-19.31,7.17S568.42,238.12,607,216s71.19,4.54,74.8,8.24-21.16,4.47-21.16,4.47Z" transform="translate(-62.5 -207.29)"/><path class="cls-1" d="M721.29,302.59s10.36-.24,10.36-9.88v-64h43.76s20-3.53,35.77,18.82,0,46.94,0,46.94-12.24,20.12-34.83,20.12H721.29s-9.88.23-9.88,10.35,11.3,9.6,11.3,9.6h58.58s27.06-1.13,42.83-24,14.12-33.18,13.41-48.94-13.65-30.36-17.88-35.06-21.41-18.38-38.83-18.72-61.64-.56-61.64-.56-8.24,1.16-7.77,13.4,0,71.29,0,71.29S711.65,301.65,721.29,302.59Z" transform="translate(-62.5 -207.29)"/><path class="cls-1" d="M641.29,362.35s-6.23-5.64-11,0-17.18,22.24-32.36,28.59-33.06,5.65-33.06,5.65-18.35-.35-32.94-12.47-22.23-21.65-22.23-21.65-5.77-5.18-11.41.59a7.88,7.88,0,0,0-.59,11.18s14.23,18.82,33.17,30.11S574,414.12,574,414.12s18.59-1.3,30-7.06c11.76-5.41,25.41-17.53,30.24-22.94s8.35-10.24,9.29-12.47S645.63,364.64,641.29,362.35Z" transform="translate(-62.5 -207.29)"/><path class="cls-1" d="M79.88,207.29c-11.29,0-17.17,3.3-16.94,14.12s0,100.71,0,100.71l9.42-8.47L118,220.71l3.06-13.42Z" transform="translate(-62.5 -207.29)"/><path class="cls-1" d="M62.5,314.53c0,17.38,2.12,20.33,20.29,20.29,17.21-.44,69.27,0,69.27,0H233l47-.44-5.47-10.32-20.82-5.65s-3.09,2.83-18,3.62-45.18.18-45.18.18-8,.17-7.85-8.83,12.88-7,12.88-7l42.09-.19-7.94-10.75-31-5.73s-.18,5.91-6.89,6.08-8.47-4.76-8.47-5.56-14.47-.52-14.47-.52l-4.67,1.32,9.7,20.73s3.27,6.18-2.69,9.27-9.66.09-10.37-1.06-13.41-26-13.41-26-20.91.18-36.53,8.82S92.15,313.65,87.82,318.5s-10.76,4.85-13.06,2.21c-2.73-2.47-2.7-6.47-1.22-9.48s-9.63,1.53-9.63,1.53Z" transform="translate(-62.5 -207.29)"/><path class="cls-1" d="M116.06,224.66s1.06-5.69,6.88-5.78,7.24,4.41,7.24,4.41l17.91,36.45s3,6.52-2.47,9.08-9.36,1.94-11.47-1.76-10.41-21.53-10.41-21.53L101.5,289.69s12.44-6.48,23.12-8.78,20.08-3.17,24.29-3.09,7-.17,9.06,2.3S165,292.74,165,292.74L183.55,291a14.88,14.88,0,0,1-.61-4.85c0-3.27-.09-33.09-.09-33.09V226.74s-.79-7.24,8.12-7.06,35.21-.09,35.21-.09l13.94.35V207.68l-121.06-.39-9,13.45Z" transform="translate(-62.5 -207.29)"/><path class="cls-1" d="M235.57,306.23c4.11-.13,16.24-1.32,24.05-11.47s8.12-12.39,8.6-16.63,1.28-11,0-14.78-4.63-13.63-11.29-18.39-8.47-6.71-16.06-8.43-22.15-1.15-22.15-1.15l-19.37.13-.53-.22-.08,54.45,28.58,13.05Z" transform="translate(-62.5 -207.29)"/><path class="cls-1" d="M251.91,319.36a53.78,53.78,0,0,0,17-11.18c5.62-5.74,9.5-10.59,12-16.86s4.33-12.7,4.15-18.35-.35-15.62-3.79-22.15-6.9-12.61-12.76-17.64a85.2,85.2,0,0,0-12.83-8.83,80.29,80.29,0,0,0-9.71-3.53,52.53,52.53,0,0,0-8.47-.95c-1.32,0,1.5-12.2,1.5-12.2s37.24-.18,40.94,0c5.21-.08,13.5-.52,13.33,14.74s0,66.18,0,66.18.09,30.79,0,34.59c0,7.14.17,11.56-13.68,11.21S251.91,319.36,251.91,319.36Z" transform="translate(-62.5 -207.29)"/><path class="cls-1" d="M62.5,318.59v-96.8s-.08-5.6,1.88-8.23,7.21,5.32,7.21,5.32l-2.74,6.53,3.8,69.44L69,323.18l-5.57,3.44A30,30,0,0,1,62.5,318.59Z" transform="translate(-62.5 -207.29)"/></svg>